<mxfile host="app.diagrams.net" modified="2023-09-05T18:30:21.902Z" agent="Mozilla/5.0 (X11; Linux x86_64) AppleWebKit/537.36 (KHTML, like Gecko) Chrome/116.0.0.0 Safari/537.36 OPR/102.0.0.0" version="21.7.2" etag="el-YH_0S4t-swZ2WaMSx" type="github">
  <diagram name="PÃ¡gina-1" id="aAS5KIrVriYdbhjVMVOk">
    <mxGraphModel>
      <root>
        <mxCell id="0" />
        <mxCell id="1" parent="0" />
      </root>
    </mxGraphModel>
  </diagram>
</mxfile>
